<svg viewBox="0 0 1090 400" xmlns="http://www.w3.org/2000/svg"><g><g><g><g><g><line x1="61.953125" y1="376.921875" x2="56.953125" y2="376.921875" style="visibility: inherit;" fill="rgb(0, 0, 0)" stroke="rgb(204, 204, 204)" stroke-width="1px"></line><line x1="61.953125" y1="342.65625" x2="56.953125" y2="342.65625" style="visibility: inherit;" fill="rgb(0, 0, 0)" stroke="rgb(204, 204, 204)" stroke-width="1px"></line><line x1="61.953125" y1="308.390625" x2="56.953125" y2="308.390625" style="visibility: inherit;" fill="rgb(0, 0, 0)" stroke="rgb(204, 204, 204)" stroke-width="1px"></line><line x1="61.953125" y1="274.125" x2="56.953125" y2="274.125" style="visibility: inherit;" fill="rgb(0, 0, 0)" stroke="rgb(204, 204, 204)" stroke-width="1px"></line><line x1="61.953125" y1="239.859375" x2="56.953125" y2="239.859375" style="visibility: inherit;" fill="rgb(0, 0, 0)" stroke="rgb(204, 204, 204)" stroke-width="1px"></line><line x1="61.953125" y1="205.59374999999997" x2="56.953125" y2="205.59374999999997" style="visibility: inherit;" fill="rgb(0, 0, 0)" stroke="rgb(204, 204, 204)" stroke-width="1px"></line><line x1="61.953125" y1="171.32812499999997" x2="56.953125" y2="171.32812499999997" style="visibility: inherit;" fill="rgb(0, 0, 0)" stroke="rgb(204, 204, 204)" stroke-width="1px"></line><line x1="61.953125" y1="137.06250000000006" x2="56.953125" y2="137.06250000000006" style="visibility: inherit;" fill="rgb(0, 0, 0)" stroke="rgb(204, 204, 204)" stroke-width="1px"></line><line x1="61.953125" y1="102.79687499999999" x2="56.953125" y2="102.79687499999999" style="visibility: inherit;" fill="rgb(0, 0, 0)" stroke="rgb(204, 204, 204)" stroke-width="1px"></line><line x1="61.953125" y1="68.53125000000003" x2="56.953125" y2="68.53125000000003" style="visibility: inherit;" fill="rgb(0, 0, 0)" stroke="rgb(204, 204, 204)" stroke-width="1px"></line><line x1="61.953125" y1="34.265625000000014" x2="56.953125" y2="34.265625000000014" style="visibility: inherit;" fill="rgb(0, 0, 0)" stroke="rgb(204, 204, 204)" stroke-width="1px"></line><line x1="61.953125" y1="0" x2="56.953125" y2="0" style="visibility: inherit;" fill="rgb(0, 0, 0)" stroke="rgb(204, 204, 204)" stroke-width="1px"></line></g><g transform="translate(51.953125, 0)"><text style="text-anchor: end; visibility: hidden; font-family: Roboto, sans-serif; font-size: 12px; font-weight: 200;" x="0" y="376.921875" dx="0em" dy="0.3em" fill="rgb(255, 255, 255)" stroke="none" stroke-width="1px">-0.01</text><text style="text-anchor: end; visibility: inherit; font-family: Roboto, sans-serif; font-size: 12px; font-weight: 200;" x="0" y="342.65625" dx="0em" dy="0.3em" fill="rgb(255, 255, 255)" stroke="none" stroke-width="1px">0</text><text style="text-anchor: end; visibility: inherit; font-family: Roboto, sans-serif; font-size: 12px; font-weight: 200;" x="0" y="308.390625" dx="0em" dy="0.3em" fill="rgb(255, 255, 255)" stroke="none" stroke-width="1px">0.01</text><text style="text-anchor: end; visibility: inherit; font-family: Roboto, sans-serif; font-size: 12px; font-weight: 200;" x="0" y="274.125" dx="0em" dy="0.3em" fill="rgb(255, 255, 255)" stroke="none" stroke-width="1px">0.02</text><text style="text-anchor: end; visibility: inherit; font-family: Roboto, sans-serif; font-size: 12px; font-weight: 200;" x="0" y="239.859375" dx="0em" dy="0.3em" fill="rgb(255, 255, 255)" stroke="none" stroke-width="1px">0.03</text><text style="text-anchor: end; visibility: inherit; font-family: Roboto, sans-serif; font-size: 12px; font-weight: 200;" x="0" y="205.59374999999997" dx="0em" dy="0.3em" fill="rgb(255, 255, 255)" stroke="none" stroke-width="1px">0.04</text><text style="text-anchor: end; visibility: inherit; font-family: Roboto, sans-serif; font-size: 12px; font-weight: 200;" x="0" y="171.32812499999997" dx="0em" dy="0.3em" fill="rgb(255, 255, 255)" stroke="none" stroke-width="1px">0.05</text><text style="text-anchor: end; visibility: inherit; font-family: Roboto, sans-serif; font-size: 12px; font-weight: 200;" x="0" y="137.06250000000006" dx="0em" dy="0.3em" fill="rgb(255, 255, 255)" stroke="none" stroke-width="1px">0.06</text><text style="text-anchor: end; visibility: inherit; font-family: Roboto, sans-serif; font-size: 12px; font-weight: 200;" x="0" y="102.79687499999999" dx="0em" dy="0.3em" fill="rgb(255, 255, 255)" stroke="none" stroke-width="1px">0.07</text><text style="text-anchor: end; visibility: inherit; font-family: Roboto, sans-serif; font-size: 12px; font-weight: 200;" x="0" y="68.53125000000003" dx="0em" dy="0.3em" fill="rgb(255, 255, 255)" stroke="none" stroke-width="1px">0.08</text><text style="text-anchor: end; visibility: inherit; font-family: Roboto, sans-serif; font-size: 12px; font-weight: 200;" x="0" y="34.265625000000014" dx="0em" dy="0.3em" fill="rgb(255, 255, 255)" stroke="none" stroke-width="1px">0.09</text><text style="text-anchor: end; visibility: hidden; font-family: Roboto, sans-serif; font-size: 12px; font-weight: 200;" x="0" y="0" dx="0em" dy="0.3em" fill="rgb(255, 255, 255)" stroke="none" stroke-width="1px">0.1</text></g><line x1="61.953125" y1="0" x2="61.953125" y2="376.921875" fill="rgb(0, 0, 0)" stroke="rgb(204, 204, 204)" stroke-width="1px"></line></g></g><g transform="translate(61, 0)" clip-path="url(#clip_0)"><clipPath id="clip_0"><rect width="1028" height="376"></rect></clipPath><g><g><g><line x1="0" y1="0" x2="0" y2="376.921875" fill="rgb(0, 0, 0)" stroke="rgb(189, 189, 189)" stroke-width="1px" opacity="0.25"></line><line x1="73.43191964285714" y1="0" x2="73.43191964285714" y2="376.921875" fill="rgb(0, 0, 0)" stroke="rgb(189, 189, 189)" stroke-width="1px" opacity="0.25"></line><line x1="146.86383928571428" y1="0" x2="146.86383928571428" y2="376.921875" fill="rgb(0, 0, 0)" stroke="rgb(189, 189, 189)" stroke-width="1px" opacity="0.25"></line><line x1="220.29575892857142" y1="0" x2="220.29575892857142" y2="376.921875" fill="rgb(0, 0, 0)" stroke="rgb(189, 189, 189)" stroke-width="1px" opacity="0.25"></line><line x1="293.72767857142856" y1="0" x2="293.72767857142856" y2="376.921875" fill="rgb(0, 0, 0)" stroke="rgb(189, 189, 189)" stroke-width="1px" opacity="0.25"></line><line x1="367.1595982142857" y1="0" x2="367.1595982142857" y2="376.921875" fill="rgb(0, 0, 0)" stroke="rgb(189, 189, 189)" stroke-width="1px" opacity="0.25"></line><line x1="440.59151785714283" y1="0" x2="440.59151785714283" y2="376.921875" fill="rgb(0, 0, 0)" stroke="rgb(189, 189, 189)" stroke-width="1px" opacity="0.25"></line><line x1="514.0234375" y1="0" x2="514.0234375" y2="376.921875" fill="rgb(0, 0, 0)" stroke="rgb(189, 189, 189)" stroke-width="1px" opacity="0.25"></line><line x1="587.4553571428571" y1="0" x2="587.4553571428571" y2="376.921875" fill="rgb(0, 0, 0)" stroke="rgb(189, 189, 189)" stroke-width="1px" opacity="0.25"></line><line x1="660.8872767857143" y1="0" x2="660.8872767857143" y2="376.921875" fill="rgb(0, 0, 0)" stroke="rgb(189, 189, 189)" stroke-width="1px" opacity="0.25"></line><line x1="734.3191964285714" y1="0" x2="734.3191964285714" y2="376.921875" fill="rgb(0, 0, 0)" stroke="rgb(189, 189, 189)" stroke-width="1px" opacity="0.25"></line><line x1="807.7511160714286" y1="0" x2="807.7511160714286" y2="376.921875" fill="rgb(0, 0, 0)" stroke="rgb(189, 189, 189)" stroke-width="1px" opacity="0.25"></line><line x1="881.1830357142857" y1="0" x2="881.1830357142857" y2="376.921875" fill="rgb(0, 0, 0)" stroke="rgb(189, 189, 189)" stroke-width="1px" opacity="0.25"></line><line x1="954.6149553571429" y1="0" x2="954.6149553571429" y2="376.921875" fill="rgb(0, 0, 0)" stroke="rgb(189, 189, 189)" stroke-width="1px" opacity="0.25"></line><line x1="1028.046875" y1="0" x2="1028.046875" y2="376.921875" fill="rgb(0, 0, 0)" stroke="rgb(189, 189, 189)" stroke-width="1px" opacity="0.25"></line></g><g><line x1="0" y1="376.921875" x2="1028.046875" y2="376.921875" fill="rgb(0, 0, 0)" stroke="rgb(189, 189, 189)" stroke-width="1px" opacity="0.25"></line><line x1="0" y1="342.65625" x2="1028.046875" y2="342.65625" fill="rgb(0, 0, 0)" stroke="rgb(189, 189, 189)" stroke-width="1px" opacity="0.25"></line><line x1="0" y1="308.390625" x2="1028.046875" y2="308.390625" fill="rgb(0, 0, 0)" stroke="rgb(189, 189, 189)" stroke-width="1px" opacity="0.25"></line><line x1="0" y1="274.125" x2="1028.046875" y2="274.125" fill="rgb(0, 0, 0)" stroke="rgb(189, 189, 189)" stroke-width="1px" opacity="0.25"></line><line x1="0" y1="239.859375" x2="1028.046875" y2="239.859375" fill="rgb(0, 0, 0)" stroke="rgb(189, 189, 189)" stroke-width="1px" opacity="0.25"></line><line x1="0" y1="205.59374999999997" x2="1028.046875" y2="205.59374999999997" fill="rgb(0, 0, 0)" stroke="rgb(189, 189, 189)" stroke-width="1px" opacity="0.25"></line><line x1="0" y1="171.32812499999997" x2="1028.046875" y2="171.32812499999997" fill="rgb(0, 0, 0)" stroke="rgb(189, 189, 189)" stroke-width="1px" opacity="0.25"></line><line x1="0" y1="137.06250000000006" x2="1028.046875" y2="137.06250000000006" fill="rgb(0, 0, 0)" stroke="rgb(189, 189, 189)" stroke-width="1px" opacity="0.25"></line><line x1="0" y1="102.79687499999999" x2="1028.046875" y2="102.79687499999999" fill="rgb(0, 0, 0)" stroke="rgb(189, 189, 189)" stroke-width="1px" opacity="0.25"></line><line x1="0" y1="68.53125000000003" x2="1028.046875" y2="68.53125000000003" fill="rgb(0, 0, 0)" stroke="rgb(189, 189, 189)" stroke-width="1px" opacity="0.25"></line><line x1="0" y1="34.265625000000014" x2="1028.046875" y2="34.265625000000014" fill="rgb(0, 0, 0)" stroke="rgb(189, 189, 189)" stroke-width="1px" opacity="0.25"></line><line x1="0" y1="0" x2="1028.046875" y2="0" fill="rgb(0, 0, 0)" stroke="rgb(189, 189, 189)" stroke-width="1px" opacity="0.25"></line></g></g></g><g><g><line x1="0" y1="342.65625" x2="1028.046875" y2="342.65625" fill="rgb(0, 0, 0)" stroke="rgb(153, 153, 153)" stroke-width="1.5px"></line></g></g><g><g><line x1="73.43191964285714" y1="0" x2="73.43191964285714" y2="376.921875" fill="rgb(0, 0, 0)" stroke="rgb(153, 153, 153)" stroke-width="1.5px"></line></g></g><g><g><g><g><g><path style="fill: none;" stroke="rgb(187, 187, 187)" stroke-width="2px" d="M88.11830357142857,-72.48550649208487L102.8046875,45.68223645425956L117.49107142857143,131.99752046304636L132.17745535714283,182.5936447355482L146.86383928571428,180.21947681848047L161.55022321428572,207.41215568830245L176.23660714285714,219.91970510412747L190.92299107142858,230.42117772358813L205.609375,167.76550981518972L220.29575892857142,194.21714292167658L234.98214285714286,218.40869142261812L249.66852678571428,246.184309658463L264.35491071428567,265.4169075961585L279.0412946428571,278.25829377302705L293.72767857142856,286.0406187765399L308.4140625,291.58118361765565L323.10044642857144,294.64337525329194L337.78683035714283,294.8741566431043L352.4732142857143,296.2800171213544L367.1595982142857,256.52245049760785L381.84598214285717,250.67276261978853L396.5323660714286,262.2610784503776L411.21875,266.12080466301876L425.90513392857144,274.34822453265247L440.59151785714283,-30.08195170391364L455.2779017857143,72.63924943862546L469.9642857142857,154.8759992340481L484.6506696428571,208.78082075859112L499.33705357142856,236.62325185924925L514.0234375,256.82415610451875L528.7098214285713,264.6797488683922L543.3962053571429,275.05400682104096L558.0825892857142,282.49158675580213L572.7689732142858,285.79114257379155L587.4553571428571,290.02048483523663L602.1417410714286,292.71277570852646L616.828125,291.157411864702L631.5145089285714,291.9302929032208L646.2008928571429,292.266806132638L660.8872767857143,292.15665213362126L675.5736607142857,286.8551791367805L690.2600446428571,283.88532022310727L704.9464285714286,288.1240947945728L719.6328125,291.47390461442336L734.3191964285714,293.77658121228217L749.0055803571428,297.0122679051673L763.6919642857143,299.6726230441935L778.3783482142857,300.6138632247137L793.0647321428572,290.81303052540807L807.7511160714286,294.3841546011252L822.4375,289.3180231869689L837.1238839285714,293.1037884128441L851.8102678571429,297.4962853030631L866.4966517857143,301.6460104078045L881.1830357142857,305.22471527982117L895.8694196428571,305.5011060380252L910.5558035714286,305.5872706726863L925.2421875,305.24616927161173L939.9285714285714,304.9594158250865L954.6149553571429,304.5547597432991L969.3013392857142,304.17392092667615L983.9877232142858,303.79004278655594L998.6741071428571,303.3783261045392" fill="none"></path></g><g><path style="fill: none;" stroke="rgb(0, 153, 136)" stroke-width="2px" d="M117.49107142857143,-16.31035449070615L132.17745535714283,87.31004764298525L146.86383928571428,162.78854755548045L161.55022321428572,180.0281983149098L176.23660714285714,216.34867960963706L190.92299107142858,218.0589063174997L205.609375,246.81244584029926L220.29575892857142,129.26770815419997L234.98214285714286,168.70720087708764L249.66852678571428,219.21351670120933L264.35491071428567,254.73100775315092L279.0412946428571,277.38258859523984L293.72767857142856,291.3764333276679L308.4140625,299.59863095796356L323.10044642857144,306.40756018457563L337.78683035714283,314.14830929755436L352.4732142857143,316.8561489133885L367.1595982142857,318.61326166741975L381.84598214285717,226.74832176015846L396.5323660714286,235.37959837097472L411.21875,263.6152088579782L425.90513392857144,284.8604814843671L440.59151785714283,295.4401216319271L455.2779017857143,154.24313317224608L469.9642857142857,192.42601457176008L484.6506696428571,234.92629078595357L499.33705357142856,254.83708393903373L514.0234375,274.5775036525152L528.7098214285713,270.5398388080676L543.3962053571429,280.4881091662168L558.0825892857142,295.293377047077L572.7689732142858,297.44651570858656L587.4553571428571,306.7236361310341L602.1417410714286,314.53878888110034L616.828125,319.6780967457747L631.5145089285714,323.9067916751582L646.2008928571429,327.85056077703973L660.8872767857143,329.4043768823764L675.5736607142857,331.1837923242983L690.2600446428571,323.7239855085777L704.9464285714286,327.70536117984074L719.6328125,331.8580094571951L734.3191964285714,332.869231573011L749.0055803571428,335.3780715893152L763.6919642857143,333.32587919653054L778.3783482142857,336.0070785959341L793.0647321428572,333.872423004644L807.7511160714286,333.04837037377695L822.4375,300.8753587905034L837.1238839285714,290.6571995989443L851.8102678571429,303.6659779496153L866.4966517857143,314.30482007202846L881.1830357142857,319.3915026268163L895.8694196428571,326.2696353963381L910.5558035714286,331.64306713984354L925.2421875,335.4258801620209L939.9285714285714,337.981602757184L954.6149553571429,339.667104007807L969.3013392857142,340.73201421538056L983.9877232142858,341.39842155542914L998.6741071428571,341.81312256456584" fill="none"></path></g></g></g></g><g opacity="0.20000000298023224"><g><g><g><path style="fill: none;" stroke="rgb(187, 187, 187)" stroke-width="2px" d="M73.43191964285714,-193.4836391313002L88.11830357142857,0.11337309144440737L102.8046875,159.1232696827501L117.49107142857143,233.50429445737976L132.17745535714283,248.65194458572657L146.86383928571428,176.9351478887256L161.55022321428572,246.29812155500989L176.23660714285714,238.15583222487473L190.92299107142858,245.90881003125102L205.609375,74.7291451133788L220.29575892857142,233.65467821597124L234.98214285714286,254.5643648353871L249.66852678571428,287.75704479950946L264.35491071428567,294.2281258411822L279.0412946428571,297.505278470926L293.72767857142856,297.70861758326646L308.4140625,299.88968629797455L323.10044642857144,299.2358852166217L337.78683035714283,295.2202935706009L352.4732142857143,298.38867933751317L367.1595982142857,196.88828096142973L381.84598214285717,241.8984232895309L396.5323660714286,279.6433234051801L411.21875,271.9103482598439L425.90513392857144,286.6892958601238L440.59151785714283,-486.7259178031236L455.2779017857143,226.72078831703402L469.9642857142857,278.23099767439993L484.6506696428571,289.63800339144655L499.33705357142856,278.386883122148L514.0234375,287.1255057735834L528.7098214285713,276.46313645120244L543.3962053571429,290.6153925115359L558.0825892857142,293.6479561252054L572.7689732142858,290.7404761589714L587.4553571428571,296.3644981183461L602.1417410714286,296.7512119768071L616.828125,288.8243661134038L631.5145089285714,293.0896144566941L646.2008928571429,292.7715759756393L660.8872767857143,291.99142113531707L675.5736607142857,278.9029696478974L690.2600446428571,279.4305318547413L704.9464285714286,294.48225664993515L719.6328125,296.49861934332876L734.3191964285714,297.2305961087113L749.0055803571428,301.8657979441923L763.6919642857143,303.6631557525834L778.3783482142857,302.02572349546244L793.0647321428572,276.1117814766476L807.7511160714286,299.7408407146577L822.4375,281.7188260657713L837.1238839285714,298.7824362516403L851.8102678571429,304.08503063838L866.4966517857143,307.87059806491015L881.1830357142857,310.5927725878428L895.8694196428571,305.91569217533106L910.5558035714286,305.7165176246781L925.2421875,304.7345171699999L939.9285714285714,304.52928565529874L954.6149553571429,303.9477756206179L969.3013392857142,303.6026627017418L983.9877232142858,303.2142255763756L998.6741071428571,302.7607510815141" fill="none"></path></g><g><path style="fill: none;" stroke="rgb(0, 153, 136)" stroke-width="2px" d="M88.11830357142857,-139.9966000998393L102.8046875,67.05310160061347L117.49107142857143,203.84250540984794L132.17745535714283,222.59684466873296L146.86383928571428,267.20248519442976L161.55022321428572,204.6811747353058L176.23660714285714,269.3042900139699L190.92299107142858,220.58115851716138L205.609375,289.50810097914655L220.29575892857142,-45.983276255428805L234.98214285714286,227.65181198366915L249.66852678571428,294.80807855317835L264.35491071428567,307.9376618686365L279.0412946428571,311.3333337754011L293.72767857142856,312.3573308828054L308.4140625,311.9284480449278L323.10044642857144,316.61922523810057L337.78683035714283,325.7582537418057L352.4732142857143,320.91766082987306L367.1595982142857,321.2488344342273L381.84598214285717,88.95393475424501L396.5323660714286,248.32634287769906L411.21875,305.96829011075897L425.90513392857144,316.72823942164536L440.59151785714283,311.30953673593467L455.2779017857143,-57.55198823288084L469.9642857142857,249.70027805131392L484.6506696428571,298.6766659584828L499.33705357142856,284.7032626642613L514.0234375,304.1881266765995L528.7098214285713,264.48334234475624L543.3962053571429,295.410513515817L558.0825892857142,317.50127780789626L572.7689732142858,300.6762236083159L587.4553571428571,320.6393165254849L602.1417410714286,326.2615178852866L616.828125,327.38705849507824L631.5145089285714,330.2498340456805L646.2008928571429,333.7662144166825L660.8872767857143,331.73510103726585L675.5736607142857,333.8529154850403L690.2600446428571,312.53427529038163L704.9464285714286,333.6774246850109L719.6328125,338.0869818721476L734.3191964285714,334.3860647465772L749.0055803571428,339.14133161353675L763.6919642857143,330.24759060746874L778.3783482142857,340.0288776949492L793.0647321428572,330.670439617752L807.7511160714286,331.81229142748634L822.4375,252.61584141582713L837.1238839285714,275.3299608116504L851.8102678571429,323.1791454755876L866.4966517857143,330.2630832556315L881.1830357142857,327.0215264589933L895.8694196428571,336.5868345506169L910.5558035714286,339.7032147550999L925.2421875,341.1000996952862L939.9285714285714,341.81518664992836L954.6149553571429,342.1953558837413L969.3013392857142,342.3293795267409L983.9877232142858,342.39803256550204L998.6741071428571,342.43517407827085" fill="none"></path></g></g></g></g></g></g><g transform="translate(61, 376)" clip-path="url(#clip_1)"><clipPath id="clip_1"><rect width="1028" height="23"></rect></clipPath><g><g><line x1="0" y1="0" x2="0" y2="5" style="visibility: inherit;" fill="rgb(0, 0, 0)" stroke="rgb(204, 204, 204)" stroke-width="1px"></line><line x1="73.43191964285714" y1="0" x2="73.43191964285714" y2="5" style="visibility: inherit;" fill="rgb(0, 0, 0)" stroke="rgb(204, 204, 204)" stroke-width="1px"></line><line x1="146.86383928571428" y1="0" x2="146.86383928571428" y2="5" style="visibility: inherit;" fill="rgb(0, 0, 0)" stroke="rgb(204, 204, 204)" stroke-width="1px"></line><line x1="220.29575892857142" y1="0" x2="220.29575892857142" y2="5" style="visibility: inherit;" fill="rgb(0, 0, 0)" stroke="rgb(204, 204, 204)" stroke-width="1px"></line><line x1="293.72767857142856" y1="0" x2="293.72767857142856" y2="5" style="visibility: inherit;" fill="rgb(0, 0, 0)" stroke="rgb(204, 204, 204)" stroke-width="1px"></line><line x1="367.1595982142857" y1="0" x2="367.1595982142857" y2="5" style="visibility: inherit;" fill="rgb(0, 0, 0)" stroke="rgb(204, 204, 204)" stroke-width="1px"></line><line x1="440.59151785714283" y1="0" x2="440.59151785714283" y2="5" style="visibility: inherit;" fill="rgb(0, 0, 0)" stroke="rgb(204, 204, 204)" stroke-width="1px"></line><line x1="514.0234375" y1="0" x2="514.0234375" y2="5" style="visibility: inherit;" fill="rgb(0, 0, 0)" stroke="rgb(204, 204, 204)" stroke-width="1px"></line><line x1="587.4553571428571" y1="0" x2="587.4553571428571" y2="5" style="visibility: inherit;" fill="rgb(0, 0, 0)" stroke="rgb(204, 204, 204)" stroke-width="1px"></line><line x1="660.8872767857143" y1="0" x2="660.8872767857143" y2="5" style="visibility: inherit;" fill="rgb(0, 0, 0)" stroke="rgb(204, 204, 204)" stroke-width="1px"></line><line x1="734.3191964285714" y1="0" x2="734.3191964285714" y2="5" style="visibility: inherit;" fill="rgb(0, 0, 0)" stroke="rgb(204, 204, 204)" stroke-width="1px"></line><line x1="807.7511160714286" y1="0" x2="807.7511160714286" y2="5" style="visibility: inherit;" fill="rgb(0, 0, 0)" stroke="rgb(204, 204, 204)" stroke-width="1px"></line><line x1="881.1830357142857" y1="0" x2="881.1830357142857" y2="5" style="visibility: inherit;" fill="rgb(0, 0, 0)" stroke="rgb(204, 204, 204)" stroke-width="1px"></line><line x1="954.6149553571429" y1="0" x2="954.6149553571429" y2="5" style="visibility: inherit;" fill="rgb(0, 0, 0)" stroke="rgb(204, 204, 204)" stroke-width="1px"></line><line x1="1028.046875" y1="0" x2="1028.046875" y2="5" style="visibility: inherit;" fill="rgb(0, 0, 0)" stroke="rgb(204, 204, 204)" stroke-width="1px"></line></g><g transform="translate(0, 8)"><text style="text-anchor: middle; visibility: hidden; font-family: Roboto, sans-serif; font-size: 12px; font-weight: 200;" x="0" y="0" dx="0em" dy="0.95em" fill="rgb(255, 255, 255)" stroke="none" stroke-width="1px">-5</text><text style="text-anchor: middle; visibility: inherit; font-family: Roboto, sans-serif; font-size: 12px; font-weight: 200;" x="73.43191964285714" y="0" dx="0em" dy="0.95em" fill="rgb(255, 255, 255)" stroke="none" stroke-width="1px">0</text><text style="text-anchor: middle; visibility: inherit; font-family: Roboto, sans-serif; font-size: 12px; font-weight: 200;" x="146.86383928571428" y="0" dx="0em" dy="0.95em" fill="rgb(255, 255, 255)" stroke="none" stroke-width="1px">5</text><text style="text-anchor: middle; visibility: inherit; font-family: Roboto, sans-serif; font-size: 12px; font-weight: 200;" x="220.29575892857142" y="0" dx="0em" dy="0.95em" fill="rgb(255, 255, 255)" stroke="none" stroke-width="1px">10</text><text style="text-anchor: middle; visibility: inherit; font-family: Roboto, sans-serif; font-size: 12px; font-weight: 200;" x="293.72767857142856" y="0" dx="0em" dy="0.95em" fill="rgb(255, 255, 255)" stroke="none" stroke-width="1px">15</text><text style="text-anchor: middle; visibility: inherit; font-family: Roboto, sans-serif; font-size: 12px; font-weight: 200;" x="367.1595982142857" y="0" dx="0em" dy="0.95em" fill="rgb(255, 255, 255)" stroke="none" stroke-width="1px">20</text><text style="text-anchor: middle; visibility: inherit; font-family: Roboto, sans-serif; font-size: 12px; font-weight: 200;" x="440.59151785714283" y="0" dx="0em" dy="0.95em" fill="rgb(255, 255, 255)" stroke="none" stroke-width="1px">25</text><text style="text-anchor: middle; visibility: inherit; font-family: Roboto, sans-serif; font-size: 12px; font-weight: 200;" x="514.0234375" y="0" dx="0em" dy="0.95em" fill="rgb(255, 255, 255)" stroke="none" stroke-width="1px">30</text><text style="text-anchor: middle; visibility: inherit; font-family: Roboto, sans-serif; font-size: 12px; font-weight: 200;" x="587.4553571428571" y="0" dx="0em" dy="0.95em" fill="rgb(255, 255, 255)" stroke="none" stroke-width="1px">35</text><text style="text-anchor: middle; visibility: inherit; font-family: Roboto, sans-serif; font-size: 12px; font-weight: 200;" x="660.8872767857143" y="0" dx="0em" dy="0.95em" fill="rgb(255, 255, 255)" stroke="none" stroke-width="1px">40</text><text style="text-anchor: middle; visibility: inherit; font-family: Roboto, sans-serif; font-size: 12px; font-weight: 200;" x="734.3191964285714" y="0" dx="0em" dy="0.95em" fill="rgb(255, 255, 255)" stroke="none" stroke-width="1px">45</text><text style="text-anchor: middle; visibility: inherit; font-family: Roboto, sans-serif; font-size: 12px; font-weight: 200;" x="807.7511160714286" y="0" dx="0em" dy="0.95em" fill="rgb(255, 255, 255)" stroke="none" stroke-width="1px">50</text><text style="text-anchor: middle; visibility: inherit; font-family: Roboto, sans-serif; font-size: 12px; font-weight: 200;" x="881.1830357142857" y="0" dx="0em" dy="0.95em" fill="rgb(255, 255, 255)" stroke="none" stroke-width="1px">55</text><text style="text-anchor: middle; visibility: inherit; font-family: Roboto, sans-serif; font-size: 12px; font-weight: 200;" x="954.6149553571429" y="0" dx="0em" dy="0.95em" fill="rgb(255, 255, 255)" stroke="none" stroke-width="1px">60</text><text style="text-anchor: middle; visibility: hidden; font-family: Roboto, sans-serif; font-size: 12px; font-weight: 200;" x="1028.046875" y="0" dx="0em" dy="0.95em" fill="rgb(255, 255, 255)" stroke="none" stroke-width="1px">65</text></g><line x1="0" y1="0" x2="1028.046875" y2="0" fill="rgb(0, 0, 0)" stroke="rgb(204, 204, 204)" stroke-width="1px"></line></g></g></g></g></svg>