<svg viewBox="0 0 1090 400" xmlns="http://www.w3.org/2000/svg"><g><g><g><g><g><line x1="60" y1="376.984375" x2="55" y2="376.984375" style="visibility: inherit;" fill="rgb(0, 0, 0)" stroke="rgb(204, 204, 204)" stroke-width="1px"></line><line x1="60" y1="351.8520833333333" x2="55" y2="351.8520833333333" style="visibility: inherit;" fill="rgb(0, 0, 0)" stroke="rgb(204, 204, 204)" stroke-width="1px"></line><line x1="60" y1="326.71979166666665" x2="55" y2="326.71979166666665" style="visibility: inherit;" fill="rgb(0, 0, 0)" stroke="rgb(204, 204, 204)" stroke-width="1px"></line><line x1="60" y1="301.58750000000003" x2="55" y2="301.58750000000003" style="visibility: inherit;" fill="rgb(0, 0, 0)" stroke="rgb(204, 204, 204)" stroke-width="1px"></line><line x1="60" y1="276.45520833333336" x2="55" y2="276.45520833333336" style="visibility: inherit;" fill="rgb(0, 0, 0)" stroke="rgb(204, 204, 204)" stroke-width="1px"></line><line x1="60" y1="251.32291666666669" x2="55" y2="251.32291666666669" style="visibility: inherit;" fill="rgb(0, 0, 0)" stroke="rgb(204, 204, 204)" stroke-width="1px"></line><line x1="60" y1="226.19062499999998" x2="55" y2="226.19062499999998" style="visibility: inherit;" fill="rgb(0, 0, 0)" stroke="rgb(204, 204, 204)" stroke-width="1px"></line><line x1="60" y1="201.05833333333334" x2="55" y2="201.05833333333334" style="visibility: inherit;" fill="rgb(0, 0, 0)" stroke="rgb(204, 204, 204)" stroke-width="1px"></line><line x1="60" y1="175.92604166666666" x2="55" y2="175.92604166666666" style="visibility: inherit;" fill="rgb(0, 0, 0)" stroke="rgb(204, 204, 204)" stroke-width="1px"></line><line x1="60" y1="150.79375000000002" x2="55" y2="150.79375000000002" style="visibility: inherit;" fill="rgb(0, 0, 0)" stroke="rgb(204, 204, 204)" stroke-width="1px"></line><line x1="60" y1="125.66145833333334" x2="55" y2="125.66145833333334" style="visibility: inherit;" fill="rgb(0, 0, 0)" stroke="rgb(204, 204, 204)" stroke-width="1px"></line><line x1="60" y1="100.52916666666668" x2="55" y2="100.52916666666668" style="visibility: inherit;" fill="rgb(0, 0, 0)" stroke="rgb(204, 204, 204)" stroke-width="1px"></line><line x1="60" y1="75.39687499999998" x2="55" y2="75.39687499999998" style="visibility: inherit;" fill="rgb(0, 0, 0)" stroke="rgb(204, 204, 204)" stroke-width="1px"></line><line x1="60" y1="50.26458333333332" x2="55" y2="50.26458333333332" style="visibility: inherit;" fill="rgb(0, 0, 0)" stroke="rgb(204, 204, 204)" stroke-width="1px"></line><line x1="60" y1="25.13229166666666" x2="55" y2="25.13229166666666" style="visibility: inherit;" fill="rgb(0, 0, 0)" stroke="rgb(204, 204, 204)" stroke-width="1px"></line><line x1="60" y1="0" x2="55" y2="0" style="visibility: inherit;" fill="rgb(0, 0, 0)" stroke="rgb(204, 204, 204)" stroke-width="1px"></line></g><g transform="translate(50, 0)"><text style="text-anchor: end; visibility: hidden; font-family: Roboto, sans-serif; font-size: 12px; font-weight: 200;" x="0" y="376.984375" dx="0em" dy="0.3em" fill="rgb(255, 255, 255)" stroke="none" stroke-width="1px">0.972</text><text style="text-anchor: end; visibility: inherit; font-family: Roboto, sans-serif; font-size: 12px; font-weight: 200;" x="0" y="351.8520833333333" dx="0em" dy="0.3em" fill="rgb(255, 255, 255)" stroke="none" stroke-width="1px">0.974</text><text style="text-anchor: end; visibility: inherit; font-family: Roboto, sans-serif; font-size: 12px; font-weight: 200;" x="0" y="326.71979166666665" dx="0em" dy="0.3em" fill="rgb(255, 255, 255)" stroke="none" stroke-width="1px">0.976</text><text style="text-anchor: end; visibility: inherit; font-family: Roboto, sans-serif; font-size: 12px; font-weight: 200;" x="0" y="301.58750000000003" dx="0em" dy="0.3em" fill="rgb(255, 255, 255)" stroke="none" stroke-width="1px">0.978</text><text style="text-anchor: end; visibility: inherit; font-family: Roboto, sans-serif; font-size: 12px; font-weight: 200;" x="0" y="276.45520833333336" dx="0em" dy="0.3em" fill="rgb(255, 255, 255)" stroke="none" stroke-width="1px">0.98</text><text style="text-anchor: end; visibility: inherit; font-family: Roboto, sans-serif; font-size: 12px; font-weight: 200;" x="0" y="251.32291666666669" dx="0em" dy="0.3em" fill="rgb(255, 255, 255)" stroke="none" stroke-width="1px">0.982</text><text style="text-anchor: end; visibility: inherit; font-family: Roboto, sans-serif; font-size: 12px; font-weight: 200;" x="0" y="226.19062499999998" dx="0em" dy="0.3em" fill="rgb(255, 255, 255)" stroke="none" stroke-width="1px">0.984</text><text style="text-anchor: end; visibility: inherit; font-family: Roboto, sans-serif; font-size: 12px; font-weight: 200;" x="0" y="201.05833333333334" dx="0em" dy="0.3em" fill="rgb(255, 255, 255)" stroke="none" stroke-width="1px">0.986</text><text style="text-anchor: end; visibility: inherit; font-family: Roboto, sans-serif; font-size: 12px; font-weight: 200;" x="0" y="175.92604166666666" dx="0em" dy="0.3em" fill="rgb(255, 255, 255)" stroke="none" stroke-width="1px">0.988</text><text style="text-anchor: end; visibility: inherit; font-family: Roboto, sans-serif; font-size: 12px; font-weight: 200;" x="0" y="150.79375000000002" dx="0em" dy="0.3em" fill="rgb(255, 255, 255)" stroke="none" stroke-width="1px">0.99</text><text style="text-anchor: end; visibility: inherit; font-family: Roboto, sans-serif; font-size: 12px; font-weight: 200;" x="0" y="125.66145833333334" dx="0em" dy="0.3em" fill="rgb(255, 255, 255)" stroke="none" stroke-width="1px">0.992</text><text style="text-anchor: end; visibility: inherit; font-family: Roboto, sans-serif; font-size: 12px; font-weight: 200;" x="0" y="100.52916666666668" dx="0em" dy="0.3em" fill="rgb(255, 255, 255)" stroke="none" stroke-width="1px">0.994</text><text style="text-anchor: end; visibility: inherit; font-family: Roboto, sans-serif; font-size: 12px; font-weight: 200;" x="0" y="75.39687499999998" dx="0em" dy="0.3em" fill="rgb(255, 255, 255)" stroke="none" stroke-width="1px">0.996</text><text style="text-anchor: end; visibility: inherit; font-family: Roboto, sans-serif; font-size: 12px; font-weight: 200;" x="0" y="50.26458333333332" dx="0em" dy="0.3em" fill="rgb(255, 255, 255)" stroke="none" stroke-width="1px">0.998</text><text style="text-anchor: end; visibility: inherit; font-family: Roboto, sans-serif; font-size: 12px; font-weight: 200;" x="0" y="25.13229166666666" dx="0em" dy="0.3em" fill="rgb(255, 255, 255)" stroke="none" stroke-width="1px">1</text><text style="text-anchor: end; visibility: hidden; font-family: Roboto, sans-serif; font-size: 12px; font-weight: 200;" x="0" y="0" dx="0em" dy="0.3em" fill="rgb(255, 255, 255)" stroke="none" stroke-width="1px">1</text></g><line x1="60" y1="0" x2="60" y2="376.984375" fill="rgb(0, 0, 0)" stroke="rgb(204, 204, 204)" stroke-width="1px"></line></g></g><g transform="translate(60, 0)" clip-path="url(#clip_0)"><clipPath id="clip_0"><rect width="1030" height="376"></rect></clipPath><g><g><g><line x1="0" y1="0" x2="0" y2="376.984375" fill="rgb(0, 0, 0)" stroke="rgb(189, 189, 189)" stroke-width="1px" opacity="0.25"></line><line x1="73.57142857142857" y1="0" x2="73.57142857142857" y2="376.984375" fill="rgb(0, 0, 0)" stroke="rgb(189, 189, 189)" stroke-width="1px" opacity="0.25"></line><line x1="147.14285714285714" y1="0" x2="147.14285714285714" y2="376.984375" fill="rgb(0, 0, 0)" stroke="rgb(189, 189, 189)" stroke-width="1px" opacity="0.25"></line><line x1="220.7142857142857" y1="0" x2="220.7142857142857" y2="376.984375" fill="rgb(0, 0, 0)" stroke="rgb(189, 189, 189)" stroke-width="1px" opacity="0.25"></line><line x1="294.2857142857143" y1="0" x2="294.2857142857143" y2="376.984375" fill="rgb(0, 0, 0)" stroke="rgb(189, 189, 189)" stroke-width="1px" opacity="0.25"></line><line x1="367.8571428571429" y1="0" x2="367.8571428571429" y2="376.984375" fill="rgb(0, 0, 0)" stroke="rgb(189, 189, 189)" stroke-width="1px" opacity="0.25"></line><line x1="441.4285714285714" y1="0" x2="441.4285714285714" y2="376.984375" fill="rgb(0, 0, 0)" stroke="rgb(189, 189, 189)" stroke-width="1px" opacity="0.25"></line><line x1="515" y1="0" x2="515" y2="376.984375" fill="rgb(0, 0, 0)" stroke="rgb(189, 189, 189)" stroke-width="1px" opacity="0.25"></line><line x1="588.5714285714286" y1="0" x2="588.5714285714286" y2="376.984375" fill="rgb(0, 0, 0)" stroke="rgb(189, 189, 189)" stroke-width="1px" opacity="0.25"></line><line x1="662.1428571428572" y1="0" x2="662.1428571428572" y2="376.984375" fill="rgb(0, 0, 0)" stroke="rgb(189, 189, 189)" stroke-width="1px" opacity="0.25"></line><line x1="735.7142857142858" y1="0" x2="735.7142857142858" y2="376.984375" fill="rgb(0, 0, 0)" stroke="rgb(189, 189, 189)" stroke-width="1px" opacity="0.25"></line><line x1="809.2857142857142" y1="0" x2="809.2857142857142" y2="376.984375" fill="rgb(0, 0, 0)" stroke="rgb(189, 189, 189)" stroke-width="1px" opacity="0.25"></line><line x1="882.8571428571428" y1="0" x2="882.8571428571428" y2="376.984375" fill="rgb(0, 0, 0)" stroke="rgb(189, 189, 189)" stroke-width="1px" opacity="0.25"></line><line x1="956.4285714285714" y1="0" x2="956.4285714285714" y2="376.984375" fill="rgb(0, 0, 0)" stroke="rgb(189, 189, 189)" stroke-width="1px" opacity="0.25"></line><line x1="1030" y1="0" x2="1030" y2="376.984375" fill="rgb(0, 0, 0)" stroke="rgb(189, 189, 189)" stroke-width="1px" opacity="0.25"></line></g><g><line x1="0" y1="376.984375" x2="1030" y2="376.984375" fill="rgb(0, 0, 0)" stroke="rgb(189, 189, 189)" stroke-width="1px" opacity="0.25"></line><line x1="0" y1="351.8520833333333" x2="1030" y2="351.8520833333333" fill="rgb(0, 0, 0)" stroke="rgb(189, 189, 189)" stroke-width="1px" opacity="0.25"></line><line x1="0" y1="326.71979166666665" x2="1030" y2="326.71979166666665" fill="rgb(0, 0, 0)" stroke="rgb(189, 189, 189)" stroke-width="1px" opacity="0.25"></line><line x1="0" y1="301.58750000000003" x2="1030" y2="301.58750000000003" fill="rgb(0, 0, 0)" stroke="rgb(189, 189, 189)" stroke-width="1px" opacity="0.25"></line><line x1="0" y1="276.45520833333336" x2="1030" y2="276.45520833333336" fill="rgb(0, 0, 0)" stroke="rgb(189, 189, 189)" stroke-width="1px" opacity="0.25"></line><line x1="0" y1="251.32291666666669" x2="1030" y2="251.32291666666669" fill="rgb(0, 0, 0)" stroke="rgb(189, 189, 189)" stroke-width="1px" opacity="0.25"></line><line x1="0" y1="226.19062499999998" x2="1030" y2="226.19062499999998" fill="rgb(0, 0, 0)" stroke="rgb(189, 189, 189)" stroke-width="1px" opacity="0.25"></line><line x1="0" y1="201.05833333333334" x2="1030" y2="201.05833333333334" fill="rgb(0, 0, 0)" stroke="rgb(189, 189, 189)" stroke-width="1px" opacity="0.25"></line><line x1="0" y1="175.92604166666666" x2="1030" y2="175.92604166666666" fill="rgb(0, 0, 0)" stroke="rgb(189, 189, 189)" stroke-width="1px" opacity="0.25"></line><line x1="0" y1="150.79375000000002" x2="1030" y2="150.79375000000002" fill="rgb(0, 0, 0)" stroke="rgb(189, 189, 189)" stroke-width="1px" opacity="0.25"></line><line x1="0" y1="125.66145833333334" x2="1030" y2="125.66145833333334" fill="rgb(0, 0, 0)" stroke="rgb(189, 189, 189)" stroke-width="1px" opacity="0.25"></line><line x1="0" y1="100.52916666666668" x2="1030" y2="100.52916666666668" fill="rgb(0, 0, 0)" stroke="rgb(189, 189, 189)" stroke-width="1px" opacity="0.25"></line><line x1="0" y1="75.39687499999998" x2="1030" y2="75.39687499999998" fill="rgb(0, 0, 0)" stroke="rgb(189, 189, 189)" stroke-width="1px" opacity="0.25"></line><line x1="0" y1="50.26458333333332" x2="1030" y2="50.26458333333332" fill="rgb(0, 0, 0)" stroke="rgb(189, 189, 189)" stroke-width="1px" opacity="0.25"></line><line x1="0" y1="25.13229166666666" x2="1030" y2="25.13229166666666" fill="rgb(0, 0, 0)" stroke="rgb(189, 189, 189)" stroke-width="1px" opacity="0.25"></line><line x1="0" y1="0" x2="1030" y2="0" fill="rgb(0, 0, 0)" stroke="rgb(189, 189, 189)" stroke-width="1px" opacity="0.25"></line></g></g></g><g><g><line x1="0" y1="12591.278124999988" x2="1030" y2="12591.278124999988" fill="rgb(0, 0, 0)" stroke="rgb(153, 153, 153)" stroke-width="1.5px"></line></g></g><g><g><line x1="73.57142857142857" y1="0" x2="73.57142857142857" y2="376.984375" fill="rgb(0, 0, 0)" stroke="rgb(153, 153, 153)" stroke-width="1.5px"></line></g></g><g><g><g><g><g><path style="fill: none;" stroke="rgb(187, 187, 187)" stroke-width="2px" d="M88.28571428571429,445.60890288911725L103,344.4875086165645L117.71428571428571,255.61008481331902L132.42857142857142,197.42260326732816L147.14285714285714,221.5051931246621L161.85714285714286,183.3807317017809L176.57142857142858,161.200757373729L191.2857142857143,160.1091935500519L206,213.13269142722928L220.7142857142857,185.2506078400323L235.42857142857142,165.61612726972103L250.14285714285714,124.18701235901995L264.85714285714283,102.33017058647972L279.57142857142856,83.29695270922528L294.2857142857143,71.8827510443861L309,65.03629124028757L323.7142857142857,60.92915711439887L338.42857142857144,61.42897002173225L353.14285714285717,55.80103033105807L367.8571428571429,85.02611605816936L382.5714285714286,114.41579604107088L397.2857142857143,96.48442711762591L412,94.61697554230724L426.7142857142857,78.6779395008357L441.4285714285714,374.3774764157986L456.1428571428571,288.0261370439085L470.85714285714283,200.65071967202684L485.57142857142856,145.26185669133392L500.2857142857143,120.91979094792165L515,100.38696294761091L529.7142857142857,91.03091393228652L544.4285714285714,79.48999310477562L559.1428571428571,72.56544096097582L573.8571428571429,68.4107098016697L588.5714285714286,65.91787115179548L603.2857142857143,64.42216797832674L618,63.52474608017084L632.7142857142858,62.98629294340904L647.4285714285714,59.699575252241935L662.1428571428572,60.69119044864842L676.8571428571429,67.21345118066259L691.5714285714286,77.05439883166915L706.2857142857143,68.14043878804769L721,59.828117356376985L735.7142857142858,54.840724497928164L750.4285714285714,54.81223418934582L765.1428571428572,51.83119459795305L779.8571428571428,50.04257084316121L794.5714285714286,60.82427941431941L809.2857142857142,55.43842173297767L824,55.17085253037749L838.7142857142857,60.93760262065834L853.4285714285714,58.47036106298364L868.1428571428571,59.95366193429793L882.8571428571428,57.879996651167986L897.5714285714286,59.599443287208516L912.2857142857142,51.73987425082134L927,47.02413282898848L941.7142857142857,44.19468797589067L956.4285714285714,42.497021064030335L971.1428571428571,41.4784209169161L985.8571428571429,40.867260828646714L1000.5714285714286,40.50056477568424" fill="none"></path></g><g><path style="fill: none;" stroke="rgb(0, 153, 136)" stroke-width="2px" d="M117.71428571428571,495.567065074369L132.42857142857142,349.3718377414029L147.14285714285714,244.41626958319762L161.85714285714286,218.96929743404618L176.57142857142858,171.7604478995342L191.2857142857143,179.87448483839944L206,136.23683326491238L220.7142857142857,261.92362178622085L235.42857142857142,224.9188299776419L250.14285714285714,161.2213728863807L264.85714285714283,117.12424397299925L279.57142857142856,89.20527338745822L294.2857142857143,72.46229473859265L309,60.93745725461695L323.7142857142857,54.02380338383822L338.42857142857144,46.91223405543805L353.14285714285717,44.12744689552753L367.8571428571429,44.67942287892167L382.5714285714286,138.36906920781055L397.2857142857143,144.93941008388995L412,112.57584944742722L426.7142857142857,85.74837603011056L441.4285714285714,74.8386294015807L456.1428571428571,230.55616248691027L470.85714285714283,195.80582451426363L485.57142857142856,144.57765548414915L500.2857142857143,119.76835866883681L515,97.47336899198287L529.7142857142857,101.13764141907703L544.4285714285714,87.77676386437908L559.1428571428571,71.60991193984145L573.8571428571429,69.31921532399014L588.5714285714286,58.31264881084265L603.2857142857143,50.22688606348418L618,44.63451699286301L632.7142857142858,42.020007016912515L647.4285714285714,38.22856667765866L662.1428571428572,35.212791025279124L676.8571428571429,34.88514853907021L691.5714285714286,48.02526877817793L706.2857142857143,43.313546641629785L721,37.52286755400002L735.7142857142858,34.04846010180942L750.4285714285714,31.963815630631217L765.1428571428572,32.19485185096731L779.8571428571428,30.85165068018705L794.5714285714286,32.26846433218293L809.2857142857142,34.60037542634001L824,71.5641705547026L838.7142857142857,84.85121061362659L853.4285714285714,67.63184609813398L868.1428571428571,55.07749303441173L882.8571428571428,49.02670409914075L897.5714285714286,41.69167348058669L912.2857142857142,37.290655109453105L927,33.16822118381622L941.7142857142857,29.953849376956395L956.4285714285714,28.025226292839957L971.1428571428571,26.868052442370924L985.8571428571429,26.17374813208921L1000.5714285714286,25.757165545919648" fill="none"></path></g></g></g></g><g opacity="0.20000000298023224"><g><g><g><path style="fill: none;" stroke="rgb(187, 187, 187)" stroke-width="2px" d="M88.28571428571429,395.5962564133104L103,247.41097011491635L117.71428571428571,151.09023442069676L132.42857142857142,121.45302736088625L147.14285714285714,254.82008462970433L161.85714285714286,128.8621418756742L176.57142857142858,128.8621418756742L191.2857142857143,158.49934893548476L206,291.8664062043029L220.7142857142857,143.6803709052502L235.42857142857142,136.27125639046224L250.14285714285714,62.17861324126517L264.85714285714283,69.58772775605317L279.57142857142856,54.76949872647721L294.2857142857143,54.76949872647721L309,54.76949872647721L323.7142857142857,54.76949872647721L338.42857142857144,62.17861324126517L353.14285714285717,47.359635211030636L367.8571428571429,128.8621418756742L382.5714285714286,158.49934893548476L397.2857142857143,69.58772775605317L412,91.81582030107572L426.7142857142857,54.76949872647721L441.4285714285714,817.9255207647874L456.1428571428571,158.49934893548476L470.85714285714283,69.58772775605317L485.57142857142856,62.17861324126517L500.2857142857143,84.40670578628774L515,69.58772775605317L529.7142857142857,76.99684227084114L544.4285714285714,62.17861324126517L559.1428571428571,62.17861324126517L573.8571428571429,62.17861324126517L588.5714285714286,62.17861324126517L603.2857142857143,62.17861324126517L618,62.17861324126517L632.7142857142858,62.17861324126517L647.4285714285714,54.76949872647721L662.1428571428572,62.17861324126517L676.8571428571429,76.99684227084114L691.5714285714286,91.81582030107572L706.2857142857143,54.76949872647721L721,47.359635211030636L735.7142857142858,47.359635211030636L750.4285714285714,54.76949872647721L765.1428571428572,47.359635211030636L779.8571428571428,47.359635211030636L794.5714285714286,76.99684227084114L809.2857142857142,47.359635211030636L824,54.76949872647721L838.7142857142857,69.58772775605317L853.4285714285714,54.76949872647721L868.1428571428571,62.17861324126517L882.8571428571428,54.76949872647721L897.5714285714286,62.17861324126517L912.2857142857142,39.950520696242634L927,39.950520696242634L941.7142857142857,39.950520696242634L956.4285714285714,39.950520696242634L971.1428571428571,39.950520696242634L985.8571428571429,39.950520696242634L1000.5714285714286,39.950520696242634" fill="none"></path></g><g><path style="fill: none;" stroke="rgb(0, 153, 136)" stroke-width="2px" d="M88.28571428571429,554.8959634845451L103,356.69765621001494L117.71428571428571,177.02213522245472L132.42857142857142,158.49934893548476L147.14285714285714,99.22493481586372L161.85714285714286,182.57972010920432L176.57142857142858,102.9294920732577L191.2857142857143,191.8411132526893L206,71.44000638475015L220.7142857142857,449.3138346468405L235.42857142857142,169.61302070766675L250.14285714285714,65.8831704986592L264.85714285714283,51.06494146908322L279.57142857142856,47.359635211030636L294.2857142857143,47.359635211030636L309,43.655077953636614L323.7142857142857,43.655077953636614L338.42857142857144,36.24596343884865L353.14285714285717,39.950520696242634L367.8571428571429,45.50735658233363L382.5714285714286,278.90045580342394L397.2857142857143,154.79479167809077L412,64.03089186996218L426.7142857142857,45.50735658233363L441.4285714285714,58.47405598387119L456.1428571428571,464.1320636764165L470.85714285714283,143.6803709052502L485.57142857142856,67.73544912735616L500.2857142857143,82.55442715759074L515,64.03089186996218L529.7142857142857,106.63404933065168L544.4285714285714,67.73544912735616L559.1428571428571,47.359635211030636L573.8571428571429,65.8831704986592L588.5714285714286,41.80279932493964L603.2857142857143,38.09824206754566L618,36.24596343884865L632.7142857142858,38.09824206754566L647.4285714285714,32.54140618145467L662.1428571428572,30.689127552757654L676.8571428571429,34.39368481015164L691.5714285714286,67.73544912735616L706.2857142857143,36.24596343884865L721,28.836848924060643L735.7142857142858,28.836848924060643L750.4285714285714,28.836848924060643L765.1428571428572,32.54140618145467L779.8571428571428,28.836848924060643L794.5714285714286,34.39368481015164L809.2857142857142,38.09824206754566L824,127.00986324697725L838.7142857142857,104.78177070195467L853.4285714285714,41.80279932493964L868.1428571428571,36.24596343884865L882.8571428571428,39.950520696242634L897.5714285714286,30.689127552757654L912.2857142857142,30.689127552757654L927,26.984570295363675L941.7142857142857,25.13229166666666L956.4285714285714,25.13229166666666L971.1428571428571,25.13229166666666L985.8571428571429,25.13229166666666L1000.5714285714286,25.13229166666666" fill="none"></path></g></g></g></g></g></g><g transform="translate(60, 376)" clip-path="url(#clip_1)"><clipPath id="clip_1"><rect width="1030" height="23"></rect></clipPath><g><g><line x1="0" y1="0" x2="0" y2="5" style="visibility: inherit;" fill="rgb(0, 0, 0)" stroke="rgb(204, 204, 204)" stroke-width="1px"></line><line x1="73.57142857142857" y1="0" x2="73.57142857142857" y2="5" style="visibility: inherit;" fill="rgb(0, 0, 0)" stroke="rgb(204, 204, 204)" stroke-width="1px"></line><line x1="147.14285714285714" y1="0" x2="147.14285714285714" y2="5" style="visibility: inherit;" fill="rgb(0, 0, 0)" stroke="rgb(204, 204, 204)" stroke-width="1px"></line><line x1="220.7142857142857" y1="0" x2="220.7142857142857" y2="5" style="visibility: inherit;" fill="rgb(0, 0, 0)" stroke="rgb(204, 204, 204)" stroke-width="1px"></line><line x1="294.2857142857143" y1="0" x2="294.2857142857143" y2="5" style="visibility: inherit;" fill="rgb(0, 0, 0)" stroke="rgb(204, 204, 204)" stroke-width="1px"></line><line x1="367.8571428571429" y1="0" x2="367.8571428571429" y2="5" style="visibility: inherit;" fill="rgb(0, 0, 0)" stroke="rgb(204, 204, 204)" stroke-width="1px"></line><line x1="441.4285714285714" y1="0" x2="441.4285714285714" y2="5" style="visibility: inherit;" fill="rgb(0, 0, 0)" stroke="rgb(204, 204, 204)" stroke-width="1px"></line><line x1="515" y1="0" x2="515" y2="5" style="visibility: inherit;" fill="rgb(0, 0, 0)" stroke="rgb(204, 204, 204)" stroke-width="1px"></line><line x1="588.5714285714286" y1="0" x2="588.5714285714286" y2="5" style="visibility: inherit;" fill="rgb(0, 0, 0)" stroke="rgb(204, 204, 204)" stroke-width="1px"></line><line x1="662.1428571428572" y1="0" x2="662.1428571428572" y2="5" style="visibility: inherit;" fill="rgb(0, 0, 0)" stroke="rgb(204, 204, 204)" stroke-width="1px"></line><line x1="735.7142857142858" y1="0" x2="735.7142857142858" y2="5" style="visibility: inherit;" fill="rgb(0, 0, 0)" stroke="rgb(204, 204, 204)" stroke-width="1px"></line><line x1="809.2857142857142" y1="0" x2="809.2857142857142" y2="5" style="visibility: inherit;" fill="rgb(0, 0, 0)" stroke="rgb(204, 204, 204)" stroke-width="1px"></line><line x1="882.8571428571428" y1="0" x2="882.8571428571428" y2="5" style="visibility: inherit;" fill="rgb(0, 0, 0)" stroke="rgb(204, 204, 204)" stroke-width="1px"></line><line x1="956.4285714285714" y1="0" x2="956.4285714285714" y2="5" style="visibility: inherit;" fill="rgb(0, 0, 0)" stroke="rgb(204, 204, 204)" stroke-width="1px"></line><line x1="1030" y1="0" x2="1030" y2="5" style="visibility: inherit;" fill="rgb(0, 0, 0)" stroke="rgb(204, 204, 204)" stroke-width="1px"></line></g><g transform="translate(0, 8)"><text style="text-anchor: middle; visibility: hidden; font-family: Roboto, sans-serif; font-size: 12px; font-weight: 200;" x="0" y="0" dx="0em" dy="0.95em" fill="rgb(255, 255, 255)" stroke="none" stroke-width="1px">-5</text><text style="text-anchor: middle; visibility: inherit; font-family: Roboto, sans-serif; font-size: 12px; font-weight: 200;" x="73.57142857142857" y="0" dx="0em" dy="0.95em" fill="rgb(255, 255, 255)" stroke="none" stroke-width="1px">0</text><text style="text-anchor: middle; visibility: inherit; font-family: Roboto, sans-serif; font-size: 12px; font-weight: 200;" x="147.14285714285714" y="0" dx="0em" dy="0.95em" fill="rgb(255, 255, 255)" stroke="none" stroke-width="1px">5</text><text style="text-anchor: middle; visibility: inherit; font-family: Roboto, sans-serif; font-size: 12px; font-weight: 200;" x="220.7142857142857" y="0" dx="0em" dy="0.95em" fill="rgb(255, 255, 255)" stroke="none" stroke-width="1px">10</text><text style="text-anchor: middle; visibility: inherit; font-family: Roboto, sans-serif; font-size: 12px; font-weight: 200;" x="294.2857142857143" y="0" dx="0em" dy="0.95em" fill="rgb(255, 255, 255)" stroke="none" stroke-width="1px">15</text><text style="text-anchor: middle; visibility: inherit; font-family: Roboto, sans-serif; font-size: 12px; font-weight: 200;" x="367.8571428571429" y="0" dx="0em" dy="0.95em" fill="rgb(255, 255, 255)" stroke="none" stroke-width="1px">20</text><text style="text-anchor: middle; visibility: inherit; font-family: Roboto, sans-serif; font-size: 12px; font-weight: 200;" x="441.4285714285714" y="0" dx="0em" dy="0.95em" fill="rgb(255, 255, 255)" stroke="none" stroke-width="1px">25</text><text style="text-anchor: middle; visibility: inherit; font-family: Roboto, sans-serif; font-size: 12px; font-weight: 200;" x="515" y="0" dx="0em" dy="0.95em" fill="rgb(255, 255, 255)" stroke="none" stroke-width="1px">30</text><text style="text-anchor: middle; visibility: inherit; font-family: Roboto, sans-serif; font-size: 12px; font-weight: 200;" x="588.5714285714286" y="0" dx="0em" dy="0.95em" fill="rgb(255, 255, 255)" stroke="none" stroke-width="1px">35</text><text style="text-anchor: middle; visibility: inherit; font-family: Roboto, sans-serif; font-size: 12px; font-weight: 200;" x="662.1428571428572" y="0" dx="0em" dy="0.95em" fill="rgb(255, 255, 255)" stroke="none" stroke-width="1px">40</text><text style="text-anchor: middle; visibility: inherit; font-family: Roboto, sans-serif; font-size: 12px; font-weight: 200;" x="735.7142857142858" y="0" dx="0em" dy="0.95em" fill="rgb(255, 255, 255)" stroke="none" stroke-width="1px">45</text><text style="text-anchor: middle; visibility: inherit; font-family: Roboto, sans-serif; font-size: 12px; font-weight: 200;" x="809.2857142857142" y="0" dx="0em" dy="0.95em" fill="rgb(255, 255, 255)" stroke="none" stroke-width="1px">50</text><text style="text-anchor: middle; visibility: inherit; font-family: Roboto, sans-serif; font-size: 12px; font-weight: 200;" x="882.8571428571428" y="0" dx="0em" dy="0.95em" fill="rgb(255, 255, 255)" stroke="none" stroke-width="1px">55</text><text style="text-anchor: middle; visibility: inherit; font-family: Roboto, sans-serif; font-size: 12px; font-weight: 200;" x="956.4285714285714" y="0" dx="0em" dy="0.95em" fill="rgb(255, 255, 255)" stroke="none" stroke-width="1px">60</text><text style="text-anchor: middle; visibility: hidden; font-family: Roboto, sans-serif; font-size: 12px; font-weight: 200;" x="1030" y="0" dx="0em" dy="0.95em" fill="rgb(255, 255, 255)" stroke="none" stroke-width="1px">65</text></g><line x1="0" y1="0" x2="1030" y2="0" fill="rgb(0, 0, 0)" stroke="rgb(204, 204, 204)" stroke-width="1px"></line></g></g></g></g></svg>